<svg id="visual" viewBox="0 0 960 540" width="960" height="540" xmlns="http://www.w3.org/2000/svg" xmlns:xlink="http://www.w3.org/1999/xlink" version="1.1"><path d="M0 125L69 125L69 141L137 141L137 93L206 93L206 125L274 125L274 158L343 158L343 120L411 120L411 147L480 147L480 131L549 131L549 152L617 152L617 136L686 136L686 163L754 163L754 98L823 98L823 190L891 190L891 158L960 158L960 114L960 0L960 0L891 0L891 0L823 0L823 0L754 0L754 0L686 0L686 0L617 0L617 0L549 0L549 0L480 0L480 0L411 0L411 0L343 0L343 0L274 0L274 0L206 0L206 0L137 0L137 0L69 0L69 0L0 0Z" fill="#011725"></path><path d="M0 298L69 298L69 293L137 293L137 287L206 287L206 282L274 282L274 293L343 293L343 282L411 282L411 282L480 282L480 255L549 255L549 320L617 320L617 282L686 282L686 298L754 298L754 303L823 303L823 309L891 309L891 244L960 244L960 276L960 112L960 156L891 156L891 188L823 188L823 96L754 96L754 161L686 161L686 134L617 134L617 150L549 150L549 129L480 129L480 145L411 145L411 118L343 118L343 156L274 156L274 123L206 123L206 91L137 91L137 139L69 139L69 123L0 123Z" fill="#00161f"></path><path d="M0 336L69 336L69 352L137 352L137 336L206 336L206 341L274 341L274 325L343 325L343 330L411 330L411 341L480 341L480 314L549 314L549 363L617 363L617 341L686 341L686 352L754 352L754 357L823 357L823 347L891 347L891 293L960 293L960 341L960 274L960 242L891 242L891 307L823 307L823 301L754 301L754 296L686 296L686 280L617 280L617 318L549 318L549 253L480 253L480 280L411 280L411 280L343 280L343 291L274 291L274 280L206 280L206 285L137 285L137 291L69 291L69 296L0 296Z" fill="#00151a"></path><path d="M0 395L69 395L69 390L137 390L137 401L206 401L206 379L274 379L274 406L343 406L343 374L411 374L411 417L480 417L480 368L549 368L549 428L617 428L617 390L686 390L686 390L754 390L754 395L823 395L823 406L891 406L891 363L960 363L960 417L960 339L960 291L891 291L891 345L823 345L823 355L754 355L754 350L686 350L686 339L617 339L617 361L549 361L549 312L480 312L480 339L411 339L411 328L343 328L343 323L274 323L274 339L206 339L206 334L137 334L137 350L69 350L69 334L0 334Z" fill="#001314"></path><path d="M0 487L69 487L69 482L137 482L137 471L206 471L206 471L274 471L274 487L343 487L343 492L411 492L411 471L480 471L480 487L549 487L549 482L617 482L617 476L686 476L686 465L754 465L754 482L823 482L823 492L891 492L891 482L960 482L960 465L960 415L960 361L891 361L891 404L823 404L823 393L754 393L754 388L686 388L686 388L617 388L617 426L549 426L549 366L480 366L480 415L411 415L411 372L343 372L343 404L274 404L274 377L206 377L206 399L137 399L137 388L69 388L69 393L0 393Z" fill="#00100f"></path><path d="M0 541L69 541L69 541L137 541L137 541L206 541L206 541L274 541L274 541L343 541L343 541L411 541L411 541L480 541L480 541L549 541L549 541L617 541L617 541L686 541L686 541L754 541L754 541L823 541L823 541L891 541L891 541L960 541L960 541L960 463L960 480L891 480L891 490L823 490L823 480L754 480L754 463L686 463L686 474L617 474L617 480L549 480L549 485L480 485L480 469L411 469L411 490L343 490L343 485L274 485L274 469L206 469L206 469L137 469L137 480L69 480L69 485L0 485Z" fill="#000c09"></path></svg>