<svg id="visual" viewBox="0 0 1366 768" width="1366" height="768" xmlns="http://www.w3.org/2000/svg" xmlns:xlink="http://www.w3.org/1999/xlink" version="1.1"><rect x="0" y="0" width="1366" height="768" fill="#001220"></rect><defs><linearGradient id="grad1_0" x1="43.8%" y1="0%" x2="100%" y2="100%"><stop offset="14.427083333333334%" stop-color="#001220" stop-opacity="1"></stop><stop offset="85.57291666666667%" stop-color="#001220" stop-opacity="1"></stop></linearGradient></defs><defs><linearGradient id="grad2_0" x1="0%" y1="0%" x2="56.2%" y2="100%"><stop offset="14.427083333333334%" stop-color="#001220" stop-opacity="1"></stop><stop offset="85.57291666666667%" stop-color="#001220" stop-opacity="1"></stop></linearGradient></defs><g transform="translate(1366, 0)"><path d="M0 691.2C-67.1 626.3 -134.2 561.4 -222.7 537.7C-311.2 513.9 -421 531.3 -488.8 488.8C-556.5 446.2 -582.1 343.6 -608.8 252.2C-635.6 160.7 -663.4 80.4 -691.2 0L0 0Z" fill="#0c3434"></path></g><g transform="translate(0, 768)"><path d="M0 -691.2C63.4 -621.1 126.7 -551 219.3 -529.4C311.8 -507.8 433.6 -534.8 488.8 -488.8C543.9 -442.7 532.6 -323.6 555.3 -230C577.9 -136.4 634.6 -68.2 691.2 0L0 0Z" fill="#0c3434"></path></g></svg>